<mxfile host="app.diagrams.net" modified="2023-10-03T00:07:10.406Z" agent="Mozilla/5.0 (Windows NT 10.0; Win64; x64; rv:109.0) Gecko/20100101 Firefox/117.0" version="21.6.2" etag="giWaqby1wKwNRwediQT8" type="github">
  <diagram name="Page-1" id="4U5a7qmPJuH9r19Ht2O1">
    <mxGraphModel>
      <root>
        <mxCell id="0" />
        <mxCell id="1" parent="0" />
      </root>
    </mxGraphModel>
  </diagram>
</mxfile>
